<svg xmlns="http://www.w3.org/2000/svg"
   xmlns:xlink="http://www.w3.org/1999/xlink"
   version="1.1"
   id="cdc_OKX" width="4.01in" height="0.478in"  viewBox="-6 -6 945 118">
<desc>
XCircuit Version 3.9
File "cdc_OKX.eps" Page 1
</desc>
<g stroke="black">
<path d="M811,16 L811,112 939,112 939,16 z" fill="none" stroke-width="2" stroke-linejoin="bevel" stroke-linecap="round" stroke="#000000" />
<path d="M811,64 L827,80 811,96 " fill="none" stroke-width="2" stroke-linejoin="bevel" stroke-linecap="round" stroke="#000000" />
<path d="M811,80 L747,80 " fill="none" stroke-width="2" stroke-linejoin="bevel" stroke-linecap="round" stroke="#000000" />
<g transform="matrix(   1    0   -0    1 731  80)" fill="#000000" >
<text stroke="none" font-family="Helvetica" font-size="40" ><tspan x="-27" y="15">A</tspan>
</text></g>
<path d="M107,0 L107,96 235,96 235,0 z" fill="none" stroke-width="2" stroke-linejoin="bevel" stroke-linecap="round" stroke="#000000" />
<path d="M107,48 L123,64 107,80 " fill="none" stroke-width="2" stroke-linejoin="bevel" stroke-linecap="round" stroke="#000000" />
<path d="M107,64 L43,64 " fill="none" stroke-width="2" stroke-linejoin="bevel" stroke-linecap="round" stroke="#000000" />
<g transform="matrix(   1    0   -0    1  27  64)" fill="#000000" >
<text stroke="none" font-family="Helvetica" font-size="40" ><tspan x="-27" y="15">B</tspan>
</text></g>
<path d="M783,56 C793,51 796,51 811,48 C796,45 793,45 783,40 C785,46 785,50 783,56 " fill="#000000" stroke="none" />
<path d="M235,48 L795,48 " fill="none" stroke-width="2" stroke-linejoin="bevel" stroke-linecap="round" stroke="#000000" />
</g>
</svg>
