<svg xmlns="http://www.w3.org/2000/svg"
   xmlns:xlink="http://www.w3.org/1999/xlink"
   version="1.1"
   id="cdc_BAD" width="4.01in" height="2.46in"  viewBox="-6 -6 945 582">
<desc>
XCircuit Version 3.9
File "cdc_BAD.eps" Page 1
</desc>
<g stroke="black">
<path d="M107,0 L107,96 235,96 235,0 z" fill="none" stroke-width="2" stroke-linejoin="bevel" stroke-linecap="round" stroke="#000000" />
<path d="M107,48 L123,64 107,80 " fill="none" stroke-width="2" stroke-linejoin="bevel" stroke-linecap="round" stroke="#000000" />
<path d="M107,64 L43,64 " fill="none" stroke-width="2" stroke-linejoin="bevel" stroke-linecap="round" stroke="#000000" />
<g transform="matrix(   1    0   -0    1  27  64)" fill="#000000" >
<text stroke="none" font-family="Helvetica" font-size="40" ><tspan x="-27" y="15">A</tspan>
</text></g>
<path d="M235,48 L331,48 " fill="none" stroke-width="2" stroke-linejoin="bevel" stroke-linecap="round" stroke="#000000" />
<path d="M811,288 L811,384 939,384 939,288 z" fill="none" stroke-width="2" stroke-linejoin="bevel" stroke-linecap="round" stroke="#000000" />
<path d="M811,336 L827,352 811,368 " fill="none" stroke-width="2" stroke-linejoin="bevel" stroke-linecap="round" stroke="#000000" />
<path d="M811,352 L747,352 " fill="none" stroke-width="2" stroke-linejoin="bevel" stroke-linecap="round" stroke="#000000" />
<g transform="matrix(   1    0   -0    1 731 352)" fill="#000000" >
<text stroke="none" font-family="Helvetica" font-size="40" ><tspan x="-27" y="15">A</tspan>
</text></g>
<path d="M107,160 L107,256 235,256 235,160 z" fill="none" stroke-width="2" stroke-linejoin="bevel" stroke-linecap="round" stroke="#000000" />
<path d="M107,208 L123,224 107,240 " fill="none" stroke-width="2" stroke-linejoin="bevel" stroke-linecap="round" stroke="#000000" />
<path d="M107,224 L43,224 " fill="none" stroke-width="2" stroke-linejoin="bevel" stroke-linecap="round" stroke="#000000" />
<g transform="matrix(   1    0   -0    1  27 224)" fill="#000000" >
<text stroke="none" font-family="Helvetica" font-size="40" ><tspan x="-27" y="15">A</tspan>
</text></g>
<path d="M235,208 L315,208 " fill="none" stroke-width="2" stroke-linejoin="bevel" stroke-linecap="round" stroke="#000000" />
<path d="M107,320 L107,416 235,416 235,320 z" fill="none" stroke-width="2" stroke-linejoin="bevel" stroke-linecap="round" stroke="#000000" />
<path d="M107,368 L123,384 107,400 " fill="none" stroke-width="2" stroke-linejoin="bevel" stroke-linecap="round" stroke="#000000" />
<path d="M107,384 L43,384 " fill="none" stroke-width="2" stroke-linejoin="bevel" stroke-linecap="round" stroke="#000000" />
<g transform="matrix(   1    0   -0    1  27 384)" fill="#000000" >
<text stroke="none" font-family="Helvetica" font-size="40" ><tspan x="-27" y="15">A</tspan>
</text></g>
<path d="M235,368 L315,368 " fill="none" stroke-width="2" stroke-linejoin="bevel" stroke-linecap="round" stroke="#000000" />
<path d="M107,480 L107,576 235,576 235,480 z" fill="none" stroke-width="2" stroke-linejoin="bevel" stroke-linecap="round" stroke="#000000" />
<path d="M107,528 L123,544 107,560 " fill="none" stroke-width="2" stroke-linejoin="bevel" stroke-linecap="round" stroke="#000000" />
<path d="M107,544 L43,544 " fill="none" stroke-width="2" stroke-linejoin="bevel" stroke-linecap="round" stroke="#000000" />
<g transform="matrix(   1    0   -0    1  27 544)" fill="#000000" >
<text stroke="none" font-family="Helvetica" font-size="40" ><tspan x="-27" y="15">B</tspan>
</text></g>
<path d="M235,528 L331,528 " fill="none" stroke-width="2" stroke-linejoin="bevel" stroke-linecap="round" stroke="#000000" />
<path d="M541,411 A81,81 0 0,0 652,336 " fill="none" stroke-width="2" stroke-linejoin="bevel" stroke-linecap="round" stroke="#000000" />
<path d="M478,152 A102,101 0 1,0 386,332 " fill="none" stroke-width="2" stroke-linejoin="bevel" stroke-linecap="round" stroke="#000000" />
<path d="M339,300 A80,80 0 0,0 475,384 " fill="none" stroke-width="2" stroke-linejoin="bevel" stroke-linecap="round" stroke="#000000" />
<path d="M600,202 A80,80 0 0,0 449,194 " fill="none" stroke-width="2" stroke-linejoin="bevel" stroke-linecap="round" stroke="#000000" />
<path d="M427,416 A64,64 0 0,0 555,416 " fill="none" stroke-width="2" stroke-linejoin="bevel" stroke-linecap="round" stroke="#000000" />
<path d="M655,338 A112,112 0 0,0 599,185 " fill="none" stroke-width="2" stroke-linejoin="bevel" stroke-linecap="round" stroke="#000000" />
<path d="M331,48 L523,48 523,128 " fill="none" stroke-width="2" stroke-linejoin="bevel" stroke-linecap="round" stroke="#000000" />
<path d="M331,528 L491,528 491,496 " fill="none" stroke-width="2" stroke-linejoin="bevel" stroke-linecap="round" stroke="#000000" />
<path d="M499,508 C494,498 494,495 491,480 C488,495 488,498 483,508 C489,506 493,506 499,508 " fill="#000000" stroke="none" />
<path d="M303,376 C313,371 316,371 331,368 C316,365 313,365 303,360 C305,366 305,370 303,376 " fill="#000000" stroke="none" />
<path d="M303,216 C313,211 316,211 331,208 C316,205 313,205 303,200 C305,206 305,210 303,216 " fill="#000000" stroke="none" />
<path d="M531,116 C526,126 526,129 523,144 C520,129 520,126 515,116 C521,118 525,118 531,116 " fill="#000000" stroke="none" />
<path d="M667,320 L795,320 " fill="none" stroke-width="2" stroke-linejoin="bevel" stroke-linecap="round" stroke="#000000" />
<path d="M783,328 C793,323 796,323 811,320 C796,317 793,317 783,312 C785,318 785,322 783,328 " fill="#000000" stroke="none" />
<g transform="matrix(   1    0   -0    1 507 272)" fill="#000000" >
<text stroke="none" font-family="Helvetica" font-size="40" ><tspan x="-124" y="15">combinational</tspan>
</text></g>
<g transform="matrix(   1    0   -0    1 507 336)" fill="#000000" >
<text stroke="none" font-family="Helvetica" font-size="40" ><tspan x="-41" y="15">logic</tspan>
</text></g>
</g>
</svg>
