<?xml version="1.0" encoding="UTF-8" standalone="no"?>
<svg
   xmlns:dc="http://purl.org/dc/elements/1.1/"
   xmlns:cc="http://creativecommons.org/ns#"
   xmlns:rdf="http://www.w3.org/1999/02/22-rdf-syntax-ns#"
   xmlns:svg="http://www.w3.org/2000/svg"
   xmlns="http://www.w3.org/2000/svg"
   viewBox="0 0 970.66669 666.66669"
   height="666.66669"
   width="970.66669"
   xml:space="preserve"
   id="svg2"
   version="1.1"><metadata
     id="metadata8"><rdf:RDF><cc:Work
         rdf:about=""><dc:format>image/svg+xml</dc:format><dc:type
           rdf:resource="http://purl.org/dc/dcmitype/StillImage" /></cc:Work></rdf:RDF></metadata><defs
     id="defs6" /><g
     transform="matrix(1.3333333,0,0,-1.3333333,0,666.66667)"
     id="g10"><g
       transform="scale(0.1)"
       id="g12"><path
         id="path14"
         style="fill:none;stroke:#000000;stroke-width:9.75;stroke-linecap:round;stroke-linejoin:bevel;stroke-miterlimit:6;stroke-dasharray:none;stroke-opacity:1"
         d="M 1960,3220 H 3040 V 4420 H 1960 Z" /><g
         transform="scale(10)"
         id="g16"><text
           id="text20"
           style="font-variant:normal;font-weight:bold;font-size:15px;font-family:Helvetica;-inkscape-font-specification:Helvetica-Bold;writing-mode:lr-tb;fill:#000000;fill-opacity:1;fill-rule:nonzero;stroke:none"
           transform="matrix(1,0,0,-1,223.519,376.541)"><tspan
             id="tspan18"
             y="0"
             x="0 10.83 20.834999 31.665001 42.494999">DPRAM</tspan></text>
</g><path
         id="path22"
         style="fill:none;stroke:#000000;stroke-width:9.75;stroke-linecap:round;stroke-linejoin:bevel;stroke-miterlimit:6;stroke-dasharray:none;stroke-opacity:1"
         d="m 2260,2860 -300,-540 h 1080 l -300,540 h -480" /><g
         transform="scale(10)"
         id="g24"><text
           id="text28"
           style="font-variant:normal;font-weight:normal;font-size:15px;font-family:Helvetica;-inkscape-font-specification:Helvetica;writing-mode:lr-tb;fill:#000000;fill-opacity:1;fill-rule:nonzero;stroke:none"
           transform="matrix(1,0,0,-1,4.76133,298.541)"><tspan
             id="tspan26"
             y="0"
             x="0 8.3400002 16.68 24.18 32.52 35.849998 40.02 50.025002 58.365002">Local Bus</tspan></text>
</g><path
         id="path30"
         style="fill:none;stroke:#000000;stroke-width:9.75;stroke-linecap:round;stroke-linejoin:bevel;stroke-miterlimit:6;stroke-dasharray:none;stroke-opacity:1"
         d="M 2140,2260 V 1720 H 1540 V 3040 H 760" /><g
         transform="scale(10)"
         id="g32"><text
           id="text36"
           style="font-variant:normal;font-weight:normal;font-size:15px;font-family:Helvetica;-inkscape-font-specification:Helvetica;writing-mode:lr-tb;fill:#000000;fill-opacity:1;fill-rule:nonzero;stroke:none"
           transform="matrix(1,0,0,-1,109.461,244.541)"><tspan
             id="tspan34"
             y="0"
             x="0 10.83 15.825 19.155001 23.325001 31.665001">writes</tspan></text>
</g><path
         id="path38"
         style="fill:none;stroke:#000000;stroke-width:9.75;stroke-linecap:round;stroke-linejoin:bevel;stroke-miterlimit:6;stroke-dasharray:none;stroke-opacity:1"
         d="m 2500,4420 v 240 H 1540 V 3040" /><g
         transform="scale(10)"
         id="g40"><text
           id="text46"
           style="font-variant:normal;font-weight:normal;font-size:15px;font-family:Helvetica;-inkscape-font-specification:Helvetica;writing-mode:lr-tb;fill:#000000;fill-opacity:1;fill-rule:nonzero;stroke:none"
           transform="matrix(1,0,0,-1,230.176,418.541)"><tspan
             id="tspan42"
             y="0"
             x="0 10.005 18.344999 23.34 27.51 31.68">Port B</tspan><tspan
             id="tspan44"
             y="84"
             x="-0.223828 9.7811718 18.121172 23.116173 27.286173 31.456173">Port A</tspan></text>
</g><path
         id="path48"
         style="fill:none;stroke:#000000;stroke-width:9.75;stroke-linecap:round;stroke-linejoin:bevel;stroke-miterlimit:6;stroke-dasharray:none;stroke-opacity:1"
         d="m 2500,2860 v 360" /><path
         id="path50"
         style="fill:none;stroke:#000000;stroke-width:9.75;stroke-linecap:round;stroke-linejoin:bevel;stroke-miterlimit:6;stroke-dasharray:none;stroke-opacity:1"
         d="m 3820,220 h 960 v 960 h -960 z" /><g
         transform="scale(10)"
         id="g52"><text
           id="text58"
           style="font-variant:normal;font-weight:bold;font-size:15px;font-family:Helvetica;-inkscape-font-specification:Helvetica-Bold;writing-mode:lr-tb;fill:#000000;fill-opacity:1;fill-rule:nonzero;stroke:none"
           transform="matrix(1,0,0,-1,410.857,82.5406)"><tspan
             id="tspan54"
             y="0"
             x="0 9.165 18.33 27.495001 31.665001">Logic</tspan><tspan
             id="tspan56"
             y="24"
             x="-11.7758 -0.94580001 8.2192001 16.5592 20.7292 29.069201 36.569199 44.909199">Analyzer</tspan></text>
</g><path
         id="path60"
         style="fill:none;stroke:#000000;stroke-width:9.75;stroke-linecap:round;stroke-linejoin:bevel;stroke-miterlimit:6;stroke-dasharray:none;stroke-opacity:1"
         d="M 2380,2260 V 760 h 1440" /><path
         id="path62"
         style="fill:none;stroke:#000000;stroke-width:9.75;stroke-linecap:round;stroke-linejoin:bevel;stroke-miterlimit:6;stroke-dasharray:none;stroke-opacity:1"
         d="m 3820,1420 h 960 v 1020 h -960 z" /><g
         transform="scale(10)"
         id="g64"><text
           id="text70"
           style="font-variant:normal;font-weight:bold;font-size:15px;font-family:Helvetica;-inkscape-font-specification:Helvetica-Bold;writing-mode:lr-tb;fill:#000000;fill-opacity:1;fill-rule:nonzero;stroke:none"
           transform="matrix(1,0,0,-1,400.227,202.541)"><tspan
             id="tspan66"
             y="0"
             x="0 10.005 15.84 25.004999 34.169998 40.005001 48.345001">Program</tspan><tspan
             id="tspan68"
             y="24.0898"
             x="-8.1871099 1.81789 10.15789 19.322889 28.48789 36.827888 45.992889 54.33289 62.67289">Sequencer</tspan></text>
</g><path
         id="path72"
         style="fill:none;stroke:#000000;stroke-width:9.75;stroke-linecap:round;stroke-linejoin:bevel;stroke-miterlimit:6;stroke-dasharray:none;stroke-opacity:1"
         d="M 3760,1780 H 2620 v 540" /><path
         id="path74"
         style="fill:none;stroke:#000000;stroke-width:9.75;stroke-linecap:round;stroke-linejoin:bevel;stroke-miterlimit:6;stroke-dasharray:none;stroke-opacity:1"
         d="m 5200,1420 h 960 v 1020 h -960 z" /><g
         transform="scale(10)"
         id="g76"><text
           id="text84"
           style="font-variant:normal;font-weight:bold;font-size:15px;font-family:Helvetica;-inkscape-font-specification:Helvetica-Bold;writing-mode:lr-tb;fill:#000000;fill-opacity:1;fill-rule:nonzero;stroke:none"
           transform="matrix(1,0,0,-1,558.861,214.541)"><tspan
             id="tspan78"
             y="0"
             x="0 10.83 15">Bit</tspan><tspan
             id="tspan80"
             y="24"
             x="-26.5203 -12.3603 -4.0202999 4.3196998 12.6597 17.654699 26.8197 32.654701">Waveform</tspan><tspan
             id="tspan82"
             y="48.089802"
             x="-29.644131 -17.974131 -9.6341295 -0.46913001 7.8708701 13.70587 22.04587 27.040871 31.210871 40.37587">Generation</tspan></text>
</g><path
         id="path86"
         style="fill:none;stroke:#000000;stroke-width:9.75;stroke-linecap:round;stroke-linejoin:bevel;stroke-miterlimit:6;stroke-dasharray:none;stroke-opacity:1"
         d="M 5140,1960 H 4840" /><g
         transform="scale(10)"
         id="g88"><text
           id="text96"
           style="font-variant:normal;font-weight:normal;font-size:15px;font-family:Helvetica;-inkscape-font-specification:Helvetica;writing-mode:lr-tb;fill:#000000;fill-opacity:1;fill-rule:nonzero;stroke:none"
           transform="matrix(1,0,0,-1,111.111,352.541)"><tspan
             id="tspan90"
             y="0"
             x="0 4.9949999 13.335 21.674999 30.014999">reads</tspan><tspan
             id="tspan92"
             y="180.09"
             x="582.17102 592.17603 603.00598">SDA</tspan><tspan
             id="tspan94"
             y="144.09"
             x="582.17102 592.17603 603.00598">SCL</tspan></text>
</g><path
         id="path98"
         style="fill:none;stroke:#000000;stroke-width:9.75;stroke-linecap:round;stroke-linejoin:bevel;stroke-miterlimit:6;stroke-dasharray:none;stroke-opacity:1"
         d="M 6880,2140 H 6160" /><path
         id="path100"
         style="fill:none;stroke:#000000;stroke-width:9.75;stroke-linecap:round;stroke-linejoin:bevel;stroke-miterlimit:6;stroke-dasharray:none;stroke-opacity:1"
         d="M 6880,1780 H 6160" /><g
         transform="scale(10)"
         id="g102"><text
           id="text106"
           style="font-variant:normal;font-weight:normal;font-size:15px;font-family:Helvetica;-inkscape-font-specification:Helvetica;writing-mode:lr-tb;fill:#000000;fill-opacity:1;fill-rule:nonzero;stroke:none"
           transform="matrix(1,0,0,-1,296.88,160)"><tspan
             id="tspan104"
             y="0"
             x="0 3.3299999 11.67 19.17 23.34 28.334999 36.674999 44.174999 48.345001 51.674999 60.014999 68.355003">instructions</tspan></text>
</g><path
         id="path108"
         style="fill:none;stroke:#000000;stroke-width:9.75;stroke-linecap:round;stroke-linejoin:bevel;stroke-miterlimit:6;stroke-dasharray:none;stroke-opacity:1"
         d="m 2860,2260 v -180 h 960" /><g
         transform="scale(10)"
         id="g110"><text
           id="text114"
           style="font-variant:normal;font-weight:normal;font-size:15px;font-family:Helvetica;-inkscape-font-specification:Helvetica;writing-mode:lr-tb;fill:#000000;fill-opacity:1;fill-rule:nonzero;stroke:none"
           transform="matrix(1,0,0,-1,324.742,220)"><tspan
             id="tspan112"
             y="0"
             x="0 4.9949999 13.335 20.834999 29.174999 32.505001 36.674999">results</tspan></text>
</g><path
         id="path116"
         style="fill:none;stroke:#000000;stroke-width:9.75;stroke-linecap:round;stroke-linejoin:bevel;stroke-miterlimit:6;stroke-dasharray:none;stroke-opacity:1"
         d="M 4840,940 H 6400 V 2140" /><path
         id="path118"
         style="fill:none;stroke:#000000;stroke-width:9.75;stroke-linecap:round;stroke-linejoin:bevel;stroke-miterlimit:6;stroke-dasharray:none;stroke-opacity:1"
         d="M 4840,580 H 6580 V 1780" /><path
         id="path120"
         style="fill:#000000;fill-opacity:1;fill-rule:evenodd;stroke:none"
         d="m 6422.5,2140 c 0,12.43 -10.07,22.5 -22.5,22.5 -12.43,0 -22.5,-10.07 -22.5,-22.5 0,-12.43 10.07,-22.5 22.5,-22.5 12.43,0 22.5,10.07 22.5,22.5" /><path
         id="path122"
         style="fill:#000000;fill-opacity:1;fill-rule:evenodd;stroke:none"
         d="m 6602.5,1780 c 0,12.43 -10.07,22.5 -22.5,22.5 -12.43,0 -22.5,-10.07 -22.5,-22.5 0,-12.43 10.07,-22.5 22.5,-22.5 12.43,0 22.5,10.07 22.5,22.5" /><g
         transform="scale(10)"
         id="g124"><text
           id="text134"
           style="font-style:oblique;font-variant:normal;font-size:10.5px;font-family:Helvetica;-inkscape-font-specification:Helvetica-Oblique;writing-mode:lr-tb;fill:#000000;fill-opacity:1;fill-rule:nonzero;stroke:none"
           transform="matrix(1,0,0,-1,387.305,250)"><tspan
             id="tspan126"
             y="0"
             x="0 2.3310001 8.1689997 13.419 19.257 25.094999 28.591499 34.429501 40.267502 43.186501 137.99992 140.33093 146.16893 151.41893 157.25693 163.09492 165.42592 168.34492 171.26393">i2c_prog.vi2c_bit.v</tspan><tspan
             id="tspan128"
             y="126"
             x="0 2.3310001 8.1689997 13.419 19.257 25.094999 30.933001 36.771 39.102001 44.352001 49.602001 55.439999 58.359001">i2c_analyze.v</tspan><tspan
             id="tspan130"
             y="-198"
             x="-186.075 -180.237 -174.399 -170.9025 -165.0645 -156.31799 -153.399">dpram.v</tspan><tspan
             id="tspan132"
             y="-240"
             x="-294 -291.66901 -285.83099 -280.58099 -274.74301 -269.49301 -263.655 -257.81699 -251.979 -246.729 -243.81">i2c_chunk.v</tspan></text>
</g><path
         id="path136"
         style="fill:none;stroke:#000000;stroke-width:9.75;stroke-linecap:round;stroke-linejoin:bevel;stroke-miterlimit:6;stroke-dasharray:39, 39;stroke-dashoffset:0;stroke-opacity:1"
         d="M 880,40 H 6760 V 4840 H 880 Z" /><path
         id="path138"
         style="fill:#000000;fill-opacity:1;fill-rule:evenodd;stroke:none"
         d="m 2170,2215 c -18.75,37.5 -18.75,48.75 -30,105 -11.25,-56.25 -11.25,-67.5 -30,-105 22.5,7.5 37.5,7.5 60,0" /><path
         id="path140"
         style="fill:#000000;fill-opacity:1;fill-rule:evenodd;stroke:none"
         d="m 2890,2215 c -18.75,37.5 -18.75,48.75 -30,105 -11.25,-56.25 -11.25,-67.5 -30,-105 22.5,7.5 37.5,7.5 60,0" /><path
         id="path142"
         style="fill:#000000;fill-opacity:1;fill-rule:evenodd;stroke:none"
         d="m 2410,2215 c -18.75,37.5 -18.75,48.75 -30,105 -11.25,-56.25 -11.25,-67.5 -30,-105 22.5,7.5 37.5,7.5 60,0" /><path
         id="path144"
         style="fill:#000000;fill-opacity:1;fill-rule:evenodd;stroke:none"
         d="m 3715,1750 c 37.5,18.75 48.75,18.75 105,30 -56.25,11.25 -67.5,11.25 -105,30 7.5,-22.5 7.5,-37.5 0,-60" /><path
         id="path146"
         style="fill:#000000;fill-opacity:1;fill-rule:evenodd;stroke:none"
         d="m 1562.5,3040 c 0,12.43 -10.07,22.5 -22.5,22.5 -12.43,0 -22.5,-10.07 -22.5,-22.5 0,-12.43 10.07,-22.5 22.5,-22.5 12.43,0 22.5,10.07 22.5,22.5" /><path
         id="path148"
         style="fill:#000000;fill-opacity:1;fill-rule:evenodd;stroke:none"
         d="m 4885,910 c -37.5,18.75 -48.75,18.75 -105,30 56.25,11.25 67.5,11.25 105,30 -7.5,-22.5 -7.5,-37.5 0,-60" /><path
         id="path150"
         style="fill:#000000;fill-opacity:1;fill-rule:evenodd;stroke:none"
         d="m 4885,550 c -37.5,18.75 -48.75,18.75 -105,30 56.25,11.25 67.5,11.25 105,30 -7.5,-22.5 -7.5,-37.5 0,-60" /><path
         id="path152"
         style="fill:#000000;fill-opacity:1;fill-rule:evenodd;stroke:none"
         d="m 5095,1930 c 37.5,18.75 48.75,18.75 105,30 -56.25,11.25 -67.5,11.25 -105,30 7.5,-22.5 7.5,-37.5 0,-60" /><path
         id="path154"
         style="fill:#000000;fill-opacity:1;fill-rule:evenodd;stroke:none"
         d="m 4885,1930 c -37.5,18.75 -48.75,18.75 -105,30 56.25,11.25 67.5,11.25 105,30 -7.5,-22.5 -7.5,-37.5 0,-60" /></g></g></svg>