<?xml version="1.0" encoding="UTF-8" standalone="no"?>
<svg
   xmlns:dc="http://purl.org/dc/elements/1.1/"
   xmlns:cc="http://creativecommons.org/ns#"
   xmlns:rdf="http://www.w3.org/1999/02/22-rdf-syntax-ns#"
   xmlns:svg="http://www.w3.org/2000/svg"
   xmlns="http://www.w3.org/2000/svg"
   viewBox="0 0 766.66669 490.66666"
   height="490.66666"
   width="766.66669"
   xml:space="preserve"
   id="svg2"
   version="1.1"><metadata
     id="metadata8"><rdf:RDF><cc:Work
         rdf:about=""><dc:format>image/svg+xml</dc:format><dc:type
           rdf:resource="http://purl.org/dc/dcmitype/StillImage" /></cc:Work></rdf:RDF></metadata><defs
     id="defs6" /><g
     transform="matrix(1.3333333,0,0,-1.3333333,0,490.66667)"
     id="g10"><g
       transform="scale(0.1)"
       id="g12"><path
         id="path14"
         style="fill:none;stroke:#000000;stroke-width:7.80000019;stroke-linecap:round;stroke-linejoin:bevel;stroke-miterlimit:6;stroke-dasharray:none;stroke-opacity:1"
         d="m 1621,2341 h 768 v 864 h -768 z" /><g
         transform="scale(10)"
         id="g16"><text
           id="text20"
           style="font-variant:normal;font-weight:bold;font-size:12px;font-family:Helvetica;-inkscape-font-specification:Helvetica-Bold;writing-mode:lr-tb;fill:#000000;fill-opacity:1;fill-rule:nonzero;stroke:none"
           transform="matrix(1,0,0,-1,179.336,272.955)"><tspan
             id="tspan18"
             y="0"
             x="0 8.6639996 16.667999 25.332001 33.995998">DPRAM</tspan></text>
</g><path
         id="path22"
         style="fill:none;stroke:#000000;stroke-width:7.80000019;stroke-linecap:round;stroke-linejoin:bevel;stroke-miterlimit:6;stroke-dasharray:none;stroke-opacity:1"
         d="m 1813,2149 -240,-432 h 864 l -240,432 h -384" /><g
         transform="scale(10)"
         id="g24"><text
           id="text28"
           style="font-variant:normal;font-weight:normal;font-size:12px;font-family:Helvetica;-inkscape-font-specification:Helvetica;writing-mode:lr-tb;fill:#000000;fill-opacity:1;fill-rule:nonzero;stroke:none"
           transform="matrix(1,0,0,-1,4.33711,220.155)"><tspan
             id="tspan26"
             y="0"
             x="0 6.6719999 13.344 19.344 26.016001 28.68 32.015999 40.02 46.692001">Local Bus</tspan></text>
</g><path
         id="path30"
         style="fill:none;stroke:#000000;stroke-width:7.80000019;stroke-linecap:round;stroke-linejoin:bevel;stroke-miterlimit:6;stroke-dasharray:none;stroke-opacity:1"
         d="m 1717,1669 v -384 h -480 v 960 H 613" /><g
         transform="scale(10)"
         id="g32"><text
           id="text36"
           style="font-variant:normal;font-weight:normal;font-size:12px;font-family:Helvetica;-inkscape-font-specification:Helvetica;writing-mode:lr-tb;fill:#000000;fill-opacity:1;fill-rule:nonzero;stroke:none"
           transform="matrix(1,0,0,-1,88.0973,176.955)"><tspan
             id="tspan34"
             y="0"
             x="0 8.6639996 12.66 15.324 18.66 25.332001">writes</tspan></text>
</g><path
         id="path38"
         style="fill:none;stroke:#000000;stroke-width:7.80000019;stroke-linecap:round;stroke-linejoin:bevel;stroke-miterlimit:6;stroke-dasharray:none;stroke-opacity:1"
         d="m 2005,3205 v 192 H 1237 V 2245" /><g
         transform="scale(10)"
         id="g40"><text
           id="text46"
           style="font-variant:normal;font-weight:normal;font-size:12px;font-family:Helvetica;-inkscape-font-specification:Helvetica;writing-mode:lr-tb;fill:#000000;fill-opacity:1;fill-rule:nonzero;stroke:none"
           transform="matrix(1,0,0,-1,184.657,306.555)"><tspan
             id="tspan42"
             y="0"
             x="0 8.0039997 14.676 18.672001 22.007999 25.344">Port B</tspan><tspan
             id="tspan44"
             y="67.199997"
             x="-0.17890599 7.8250942 14.497094 18.493093 21.829094 25.165094">Port A</tspan></text>
</g><path
         id="path48"
         style="fill:none;stroke:#000000;stroke-width:7.80000019;stroke-linecap:round;stroke-linejoin:bevel;stroke-miterlimit:6;stroke-dasharray:none;stroke-opacity:1"
         d="m 2005,2149 v 192" /><path
         id="path50"
         style="fill:none;stroke:#000000;stroke-width:7.80000019;stroke-linecap:round;stroke-linejoin:bevel;stroke-miterlimit:6;stroke-dasharray:none;stroke-opacity:1"
         d="m 3061,181 h 672 v 672 h -672 z" /><g
         transform="scale(10)"
         id="g52"><text
           id="text58"
           style="font-variant:normal;font-weight:bold;font-size:12px;font-family:Helvetica;-inkscape-font-specification:Helvetica-Bold;writing-mode:lr-tb;fill:#000000;fill-opacity:1;fill-rule:nonzero;stroke:none"
           transform="matrix(1,0,0,-1,324.4,61.7547)"><tspan
             id="tspan54"
             y="0"
             x="0 7.3319998 14.664 21.996 25.332001">Logic</tspan><tspan
             id="tspan56"
             y="19.200001"
             x="-9.4246101 -0.76060998 6.5713902 13.24339 16.57939 23.25139 29.25139 35.923389">Analyzer</tspan></text>
</g><path
         id="path60"
         style="fill:none;stroke:#000000;stroke-width:7.80000019;stroke-linecap:round;stroke-linejoin:bevel;stroke-miterlimit:6;stroke-dasharray:none;stroke-opacity:1"
         d="M 1909,1669 V 565 h 1152" /><path
         id="path62"
         style="fill:none;stroke:#000000;stroke-width:7.80000019;stroke-linecap:round;stroke-linejoin:bevel;stroke-miterlimit:6;stroke-dasharray:none;stroke-opacity:1"
         d="m 3061,1045 h 672 v 720 h -672 z" /><g
         transform="scale(10)"
         id="g64"><text
           id="text70"
           style="font-variant:normal;font-weight:bold;font-size:12px;font-family:Helvetica;-inkscape-font-specification:Helvetica-Bold;writing-mode:lr-tb;fill:#000000;fill-opacity:1;fill-rule:nonzero;stroke:none"
           transform="matrix(1,0,0,-1,315.905,148.155)"><tspan
             id="tspan66"
             y="0"
             x="0 8.0039997 12.672 20.004 27.336 32.004002 38.675999">Program</tspan><tspan
             id="tspan68"
             y="19.271099"
             x="-6.5625 1.4414999 8.1134996 15.4455 22.7775 29.449499 36.781502 43.453499 50.1255">Sequencer</tspan></text>
</g><path
         id="path72"
         style="fill:none;stroke:#000000;stroke-width:7.80000019;stroke-linecap:round;stroke-linejoin:bevel;stroke-miterlimit:6;stroke-dasharray:none;stroke-opacity:1"
         d="m 3013,1285 h -912 v 432" /><path
         id="path74"
         style="fill:none;stroke:#000000;stroke-width:7.80000019;stroke-linecap:round;stroke-linejoin:bevel;stroke-miterlimit:6;stroke-dasharray:none;stroke-opacity:1"
         d="m 4069,1045 h 768 v 720 h -768 z" /><g
         transform="scale(10)"
         id="g76"><text
           id="text84"
           style="font-variant:normal;font-weight:bold;font-size:12px;font-family:Helvetica;-inkscape-font-specification:Helvetica-Bold;writing-mode:lr-tb;fill:#000000;fill-opacity:1;fill-rule:nonzero;stroke:none"
           transform="matrix(1,0,0,-1,437.996,157.755)"><tspan
             id="tspan78"
             y="0"
             x="0 8.6639996 12">Bit</tspan><tspan
             id="tspan80"
             y="19.200001"
             x="-21.1984 -9.8704004 -3.1984 3.4735999 10.1456 14.1416 21.4736 26.1416">Waveform</tspan><tspan
             id="tspan82"
             y="38.4711"
             x="-23.7066 -14.3706 -7.6985998 -0.36660001 6.3053999 10.9734 17.645399 21.641399 24.9774 32.309399">Generation</tspan></text>
</g><path
         id="path86"
         style="fill:none;stroke:#000000;stroke-width:7.80000019;stroke-linecap:round;stroke-linejoin:bevel;stroke-miterlimit:6;stroke-dasharray:none;stroke-opacity:1"
         d="M 4021,1429 H 3781" /><g
         transform="scale(10)"
         id="g88"><text
           id="text96"
           style="font-variant:normal;font-weight:normal;font-size:12px;font-family:Helvetica;-inkscape-font-specification:Helvetica;writing-mode:lr-tb;fill:#000000;fill-opacity:1;fill-rule:nonzero;stroke:none"
           transform="matrix(1,0,0,-1,89.4168,263.355)"><tspan
             id="tspan90"
             y="0"
             x="0 3.9960001 10.668 17.34 24.011999">reads</tspan><tspan
             id="tspan92"
             y="139.271"
             x="456.11099 464.11499 472.77899">SDA</tspan><tspan
             id="tspan94"
             y="110.471"
             x="456.11099 464.11499 472.77899">SCL</tspan></text>
</g><path
         id="path98"
         style="fill:none;stroke:#000000;stroke-width:7.80000019;stroke-linecap:round;stroke-linejoin:bevel;stroke-miterlimit:6;stroke-dasharray:none;stroke-opacity:1"
         d="M 5413,1573 H 4837" /><path
         id="path100"
         style="fill:none;stroke:#000000;stroke-width:7.80000019;stroke-linecap:round;stroke-linejoin:bevel;stroke-miterlimit:6;stroke-dasharray:none;stroke-opacity:1"
         d="M 5413,1285 H 4837" /><g
         transform="scale(10)"
         id="g102"><text
           id="text106"
           style="font-variant:normal;font-weight:normal;font-size:12px;font-family:Helvetica;-inkscape-font-specification:Helvetica;writing-mode:lr-tb;fill:#000000;fill-opacity:1;fill-rule:nonzero;stroke:none"
           transform="matrix(1,0,0,-1,238.016,114.1)"><tspan
             id="tspan104"
             y="0"
             x="0 2.664 9.3360004 15.336 18.672001 22.667999 29.34 35.34 38.675999 41.34 48.012001 54.683998">instructions</tspan></text>
</g><path
         id="path108"
         style="fill:none;stroke:#000000;stroke-width:7.80000019;stroke-linecap:round;stroke-linejoin:bevel;stroke-miterlimit:6;stroke-dasharray:none;stroke-opacity:1"
         d="m 2293,1669 v -144 h 768" /><g
         transform="scale(10)"
         id="g110"><text
           id="text114"
           style="font-variant:normal;font-weight:normal;font-size:12px;font-family:Helvetica;-inkscape-font-specification:Helvetica;writing-mode:lr-tb;fill:#000000;fill-opacity:1;fill-rule:nonzero;stroke:none"
           transform="matrix(1,0,0,-1,260.305,162.1)"><tspan
             id="tspan112"
             y="0"
             x="0 3.9960001 10.668 16.667999 23.34 26.004 29.34">results</tspan></text>
</g><path
         id="path116"
         style="fill:none;stroke:#000000;stroke-width:7.80000019;stroke-linecap:round;stroke-linejoin:bevel;stroke-miterlimit:6;stroke-dasharray:none;stroke-opacity:1"
         d="m 3781,709 h 1248 v 864" /><path
         id="path118"
         style="fill:none;stroke:#000000;stroke-width:7.80000019;stroke-linecap:round;stroke-linejoin:bevel;stroke-miterlimit:6;stroke-dasharray:none;stroke-opacity:1"
         d="m 3781,421 h 1392 v 864" /><path
         id="path120"
         style="fill:#000000;fill-opacity:1;fill-rule:evenodd;stroke:none"
         d="m 5047,1573 c 0,9.94 -8.06,18 -18,18 -9.94,0 -18,-8.06 -18,-18 0,-9.94 8.06,-18 18,-18 9.94,0 18,8.06 18,18" /><path
         id="path122"
         style="fill:#000000;fill-opacity:1;fill-rule:evenodd;stroke:none"
         d="m 5191,1285 c 0,9.94 -8.06,18 -18,18 -9.94,0 -18,-8.06 -18,-18 0,-9.94 8.06,-18 18,-18 9.94,0 18,8.06 18,18" /><g
         transform="scale(10)"
         id="g124"><text
           id="text134"
           style="font-style:oblique;font-variant:normal;font-size:8.39999962px;font-family:Helvetica;-inkscape-font-specification:Helvetica-Oblique;writing-mode:lr-tb;fill:#000000;fill-opacity:1;fill-rule:nonzero;stroke:none"
           transform="matrix(1,0,0,-1,305.545,181.3)"><tspan
             id="tspan126"
             y="0"
             x="0 1.8648 6.5352001 10.7352 15.4056 20.076 22.873199 27.5436 32.214001 34.549198 100.8 102.6648 107.3352 111.5352 116.2056 120.876 122.7408 125.076 127.4112">i2c_prog.vi2c_bit.v</tspan><tspan
             id="tspan128"
             y="91.199997"
             x="0 1.8648 6.5352001 10.7352 15.4056 20.076 24.746401 29.4168 31.281601 35.481602 39.681599 44.352001 46.687199">i2c_analyze.v</tspan><tspan
             id="tspan130"
             y="-144"
             x="-144.05901 -139.3886 -134.7182 -131.92101 -127.2506 -120.2534 -117.9182">dpram.v</tspan><tspan
             id="tspan132"
             y="-177.60001"
             x="-230.3996 -228.53481 -223.8644 -219.6644 -214.994 -210.79401 -206.1236 -201.4532 -196.78281 -192.58279 -190.2476">i2c_chunk.v</tspan></text>
</g><path
         id="path136"
         style="fill:none;stroke:#000000;stroke-width:7.80000019;stroke-linecap:round;stroke-linejoin:bevel;stroke-miterlimit:6;stroke-dasharray:31.2, 31.2;stroke-dashoffset:0;stroke-opacity:1"
         d="M 757,37 H 5317 V 3541 H 757 Z" /><path
         id="path138"
         style="fill:#000000;fill-opacity:1;fill-rule:evenodd;stroke:none"
         d="m 1741,1633 c -15,30 -15,39 -24,84 -9,-45 -9,-54 -24,-84 18,6 30,6 48,0" /><path
         id="path140"
         style="fill:#000000;fill-opacity:1;fill-rule:evenodd;stroke:none"
         d="m 2317,1633 c -15,30 -15,39 -24,84 -9,-45 -9,-54 -24,-84 18,6 30,6 48,0" /><path
         id="path142"
         style="fill:#000000;fill-opacity:1;fill-rule:evenodd;stroke:none"
         d="m 1933,1633 c -15,30 -15,39 -24,84 -9,-45 -9,-54 -24,-84 18,6 30,6 48,0" /><path
         id="path144"
         style="fill:#000000;fill-opacity:1;fill-rule:evenodd;stroke:none"
         d="m 2977,1261 c 30,15 39,15 84,24 -45,9 -54,9 -84,24 6,-18 6,-30 0,-48" /><path
         id="path146"
         style="fill:#000000;fill-opacity:1;fill-rule:evenodd;stroke:none"
         d="m 1255,2245 c 0,9.94 -8.06,18 -18,18 -9.94,0 -18,-8.06 -18,-18 0,-9.94 8.06,-18 18,-18 9.94,0 18,8.06 18,18" /><path
         id="path148"
         style="fill:#000000;fill-opacity:1;fill-rule:evenodd;stroke:none"
         d="m 3817,685 c -30,15 -39,15 -84,24 45,9 54,9 84,24 -6,-18 -6,-30 0,-48" /><path
         id="path150"
         style="fill:#000000;fill-opacity:1;fill-rule:evenodd;stroke:none"
         d="m 3817,397 c -30,15 -39,15 -84,24 45,9 54,9 84,24 -6,-18 -6,-30 0,-48" /><path
         id="path152"
         style="fill:#000000;fill-opacity:1;fill-rule:evenodd;stroke:none"
         d="m 3985,1405 c 30,15 39,15 84,24 -45,9 -54,9 -84,24 6,-18 6,-30 0,-48" /><path
         id="path154"
         style="fill:#000000;fill-opacity:1;fill-rule:evenodd;stroke:none"
         d="m 3817,1405 c -30,15 -39,15 -84,24 45,9 54,9 84,24 -6,-18 -6,-30 0,-48" /></g></g></svg>